<?xml version="1.0" encoding="utf-8"?>
<!-- Generator: Adobe Illustrator 25.3.1, SVG Export Plug-In . SVG Version: 6.00 Build 0)  -->
<svg version="1.1" id="Layer_1" xmlns="http://www.w3.org/2000/svg" xmlns:xlink="http://www.w3.org/1999/xlink" x="0px" y="0px"
	 viewBox="0 0 101.5 101.5" style="enable-background:new 0 0 101.5 101.5;" xml:space="preserve">
<style type="text/css">
	.st0{fill:#1E8DB7;}
</style>
<g>
	<path class="st0" d="M48.9,50.4c2,2.2,3,5,3,8.4c0,3.3-1,6-3,8.2c-0.5,0.5-1,1-1.6,1.3l3.4,3.4l4.7-4.7L55,66.6l7.4-7.4v-46l-3.5,0
		l0-4.2l3.5,0l0-8.5H51.9v17h-3.5c0,0,0,28.2,0,32.4C48.5,50.1,48.7,50.2,48.9,50.4z"/>
	<g>
		<g>
			<polygon class="st0" points="44.8,88.2 31,81.2 31,91.1 34.9,93.1 			"/>
			<polygon class="st0" points="50.8,91.1 50.8,91.1 40.8,96.1 50.8,101 70.6,91.1 70.6,81.2 			"/>
		</g>
	</g>
</g>
</svg>
